<svg width="60" height="60" viewBox="0 0 60 60" fill="none" xmlns="http://www.w3.org/2000/svg">
<path d="M52.5 42.1875H45.9375V35.625C45.9375 35.1277 45.74 34.6508 45.3883 34.2992C45.0367 33.9475 44.5598 33.75 44.0625 33.75C43.5652 33.75 43.0883 33.9475 42.7367 34.2992C42.385 34.6508 42.1875 35.1277 42.1875 35.625V42.1875H35.625C35.1277 42.1875 34.6508 42.385 34.2992 42.7367C33.9475 43.0883 33.75 43.5652 33.75 44.0625C33.75 44.5598 33.9475 45.0367 34.2992 45.3883C34.6508 45.74 35.1277 45.9375 35.625 45.9375H42.1875V52.5C42.1875 52.9973 42.385 53.4742 42.7367 53.8258C43.0883 54.1775 43.5652 54.375 44.0625 54.375C44.5598 54.375 45.0367 54.1775 45.3883 53.8258C45.74 53.4742 45.9375 52.9973 45.9375 52.5V45.9375H52.5C52.9973 45.9375 53.4742 45.74 53.8258 45.3883C54.1775 45.0367 54.375 44.5598 54.375 44.0625C54.375 43.5652 54.1775 43.0883 53.8258 42.7367C53.4742 42.385 52.9973 42.1875 52.5 42.1875Z" fill="#E0FD60"/>
<path d="M30 54.375H11.25C10.7527 54.375 10.2758 54.1775 9.92418 53.8258C9.57254 53.4742 9.375 52.9973 9.375 52.5C9.38145 47.0319 11.5565 41.7896 15.423 37.923C19.2896 34.0565 24.5319 31.8814 30 31.875C33.624 31.8862 37.1304 30.589 39.8746 28.222C42.6188 25.8549 44.4164 22.5769 44.9372 18.9904C45.458 15.404 44.6669 11.7501 42.7092 8.70024C40.7516 5.65041 37.759 3.40958 34.2815 2.38958C30.8039 1.36959 27.0751 1.63896 23.7802 3.1482C20.4854 4.65744 17.8459 7.30513 16.347 10.6047C14.8481 13.9042 14.5903 17.6339 15.6212 21.1082C16.652 24.5826 18.9022 27.5682 21.9581 29.5162C17.1916 31.1856 13.0607 34.293 10.1351 38.4097C7.20964 42.5265 5.63378 47.4496 5.625 52.5C5.625 53.9918 6.21763 55.4226 7.27252 56.4775C8.32742 57.5324 9.75816 58.125 11.25 58.125H30C30.4973 58.125 30.9742 57.9275 31.3258 57.5758C31.6775 57.2242 31.875 56.7473 31.875 56.25C31.875 55.7527 31.6775 55.2758 31.3258 54.9242C30.9742 54.5725 30.4973 54.375 30 54.375ZM18.75 16.875C18.75 14.65 19.4098 12.4749 20.646 10.6248C21.8821 8.77478 23.6391 7.33284 25.6948 6.48135C27.7505 5.62987 30.0125 5.40708 32.1948 5.84116C34.3771 6.27525 36.3816 7.34671 37.955 8.92005C39.5283 10.4934 40.5998 12.4979 41.0338 14.6802C41.4679 16.8625 41.2451 19.1245 40.3936 21.1802C39.5422 23.2359 38.1002 24.9929 36.2502 26.229C34.4001 27.4652 32.225 28.125 30 28.125C27.0172 28.122 24.1575 26.9358 22.0483 24.8267C19.9392 22.7175 18.753 19.8578 18.75 16.875Z" fill="black"/>
</svg>
