<svg width="67" height="70" viewBox="0 0 67 70" fill="none" xmlns="http://www.w3.org/2000/svg">
<path d="M4.3802 69.8182C39.2893 69.8182 36.7802 69.9273 37.2166 69.7091C37.3257 69.7091 37.4347 69.6 37.4347 69.6C49.4347 57.7091 49.5438 57.7091 49.5438 57.0545V30.4364C50.0893 30.5455 50.7438 30.5455 51.2893 30.5455C59.6893 30.5455 66.562 23.6727 66.562 15.2727C66.562 6.87273 59.6893 0 51.2893 0C46.8166 0 42.7802 1.96364 40.0529 5.01818H4.3802C1.9802 5.01818 0.0165597 6.98182 0.0165597 9.38182V64.0364V64.1455C-0.201622 68.0727 1.76201 69.8182 4.3802 69.8182ZM37.762 66.1091V58.1455H45.7257C45.2893 58.5818 47.362 56.6182 37.762 66.1091ZM51.2893 2.18182C58.4893 2.18182 64.3802 8.07273 64.3802 15.2727C64.3802 22.4727 58.4893 28.3636 51.2893 28.3636C44.0893 28.3636 38.1984 22.4727 38.1984 15.2727C38.1984 8.07273 44.0893 2.18182 51.2893 2.18182ZM2.19838 64.0364V9.38182C2.19838 8.18182 3.1802 7.2 4.3802 7.2H38.3075C36.8893 9.38182 36.1257 12 36.0166 14.8364H21.8347C21.1802 14.8364 20.7438 15.2727 20.7438 15.9273C20.7438 16.5818 21.1802 17.0182 21.8347 17.0182H36.2347C36.562 19.5273 37.4347 21.8182 38.7438 23.7818H21.8347C21.1802 23.7818 20.7438 24.2182 20.7438 24.8727C20.7438 25.5273 21.1802 25.9636 21.8347 25.9636H40.4893C42.3438 27.8182 44.7438 29.2364 47.362 29.8909V55.8545H36.6711C36.0166 55.8545 35.5802 56.2909 35.5802 56.9455V67.6364H4.3802C2.08929 67.6364 2.30747 65.5636 2.19838 64.0364Z" fill="black"/>
<path d="M7.32577 27.4909H17.3621C18.0167 27.4909 18.453 27.0545 18.453 26.4V13.0909C18.453 12.4364 18.0167 12 17.3621 12H7.32577C6.67123 12 6.23486 12.4364 6.23486 13.0909V26.4C6.23486 27.0545 6.78032 27.4909 7.32577 27.4909ZM8.41668 14.1818H16.2712V25.3091H8.41668V14.1818Z" fill="black"/>
<path d="M7.32577 34.9091H40.7076C41.3621 34.9091 41.7985 34.4727 41.7985 33.8181C41.7985 33.1636 41.3621 32.7272 40.7076 32.7272H7.32577C6.67123 32.7272 6.23486 33.1636 6.23486 33.8181C6.23486 34.4727 6.78032 34.9091 7.32577 34.9091Z" fill="black"/>
<path d="M7.32577 43.9636H40.7076C41.3621 43.9636 41.7985 43.5273 41.7985 42.8727C41.7985 42.2182 41.3621 41.7818 40.7076 41.7818H7.32577C6.67123 41.7818 6.23486 42.2182 6.23486 42.8727C6.23486 43.4182 6.78032 43.9636 7.32577 43.9636Z" fill="black"/>
<path d="M7.32577 52.9091H40.7076C41.3621 52.9091 41.7985 52.4727 41.7985 51.8181C41.7985 51.1636 41.3621 50.7272 40.7076 50.7272H7.32577C6.67123 50.7272 6.23486 51.1636 6.23486 51.8181C6.23486 52.3636 6.78032 52.9091 7.32577 52.9091Z" fill="black"/>
<path d="M7.32577 61.8545H29.3621C30.0167 61.8545 30.453 61.4182 30.453 60.7636C30.453 60.1091 30.0167 59.6727 29.3621 59.6727H7.32577C6.67123 59.6727 6.23486 60.1091 6.23486 60.7636C6.23486 61.3091 6.78032 61.8545 7.32577 61.8545Z" fill="black"/>
<path d="M46.9256 21.8182C47.1438 22.0363 47.362 22.1454 47.6892 22.1454C48.0165 22.1454 48.2347 22.0363 48.4529 21.8182L59.1438 11.1273C59.5802 10.6909 59.5802 10.0363 59.1438 9.59998C58.7074 9.16361 58.0529 9.16361 57.6165 9.59998L47.6892 19.5273L44.962 16.8C44.5256 16.3636 43.8711 16.3636 43.4347 16.8C42.9983 17.2363 42.9983 17.8909 43.4347 18.3272L46.9256 21.8182Z" fill="#E0FD60"/>
</svg>
